<mxfile host="app.diagrams.net" modified="2023-12-19T14:53:01.581Z" agent="Mozilla/5.0 (X11; Linux x86_64; rv:120.0) Gecko/20100101 Firefox/120.0" version="22.1.11" etag="W5wEo521BQGQcugTYBEJ" type="github">
  <diagram name="Page-1" id="uN6K08LFJQ-4jhDdNHu9">
    <mxGraphModel>
      <root>
        <mxCell id="0" />
        <mxCell id="1" parent="0" />
      </root>
    </mxGraphModel>
  </diagram>
</mxfile>
